<svg xmlns="http://www.w3.org/2000/svg" version="1.1" xmlns:xlink="http://www.w3.org/1999/xlink" width="512" height="512" x="0" y="0" viewBox="0 0 24 24" style="enable-background:new 0 0 512 512" xml:space="preserve" class=""><g><path d="M22 9H9c-1.103 0-2 .897-2 2v3c0 1.103.897 2 2 2h13c1.103 0 2-.897 2-2v-3c0-1.103-.897-2-2-2ZM9 7h3c1.103 0 2-.897 2-2V2c0-1.103-.897-2-2-2H9C7.897 0 7 .897 7 2v3c0 1.103.897 2 2 2Zm13-6h-4c-1.103 0-2 .897-2 2v2c0 1.103.897 2 2 2h4c1.103 0 2-.897 2-2V3c0-1.103-.897-2-2-2Zm1 17H8c-1.654 0-3-1.346-3-3V4c0-2.206-1.794-4-4-4a1 1 0 1 0 0 2c1.103 0 2 .897 2 2v11a5.003 5.003 0 0 0 3 4.576V21c0 1.654 1.346 3 3 3s3-1.346 3-3v-1h5v1c0 1.654 1.346 3 3 3s3-1.346 3-3v-1a1 1 0 1 0 0-2Z" fill="#ffffff" opacity="1" data-original="#000000" class=""></path></g></svg>